<?xml version="1.0" encoding="utf-8"?>
<!-- Generator: Adobe Illustrator 25.0.0, SVG Export Plug-In . SVG Version: 6.00 Build 0)  -->
<svg version="1.1" id="圖層_1" xmlns="http://www.w3.org/2000/svg" xmlns:xlink="http://www.w3.org/1999/xlink" x="0px" y="0px"
	 viewBox="0 0 85.04 85.04" style="enable-background:new 0 0 85.04 85.04;" xml:space="preserve">
<g>
	<path d="M84.2,37.66c-0.14,14.36-7.91,28.24-22.69,33.78c-12.13,4.55-24.54,7.78-37.33,9.69c-5.67,0.85-11.32,1.82-16.98,2.74
		c-0.49,0.08-0.99,0.17-1.48,0.22c-3.92,0.37-5.32-0.99-4.75-4.84c1.07-7.29,2.15-14.59,3.4-21.85c2.14-12.45,5.15-24.7,10.4-36.24
		C20.38,8.8,30.38,2.4,43.81,1.08C63.58-0.86,80.22,12.9,83.88,32.2C84.22,33.97,84.1,35.83,84.2,37.66z"/>
</g>
</svg>
